<svg xmlns="http://www.w3.org/2000/svg" xmlns:xlink="http://www.w3.org/1999/xlink" viewBox="0 0 805.72 576.68"><defs><style>.cls-1{fill:#24376f;}.cls-2{fill:url(#linear-gradient);}.cls-3{fill:#f4d53c;}.cls-4{fill:#1f2c51;}.cls-5{fill:#0f1633;}.cls-6{fill:#0f131f;}.cls-7{fill:#60803e;}.cls-8{fill:#4a4e47;}.cls-9{fill:#c7b2c3;}.cls-10{fill:#daadd0;}.cls-11{fill:#110e11;}.cls-12{fill:#e4dce3;}.cls-13{fill:#21231f;}</style><linearGradient id="linear-gradient" x1="223.08" y1="174.87" x2="574.56" y2="174.87" gradientTransform="translate(-2.8 -3.47)" gradientUnits="userSpaceOnUse"><stop offset="0" stop-color="#fbb040"/><stop offset="0.19" stop-color="#f8983e"/><stop offset="0.74" stop-color="#f25a38"/><stop offset="1" stop-color="#ef4136"/></linearGradient></defs><g id="ground"><rect class="cls-1" x="1.61" y="359.44" width="800.75" height="217.25"/></g><g id="sky"><rect class="cls-2" x="220.28" y="-227.77" width="351.47" height="798.34" transform="translate(232.88 571.76) rotate(-90)"/></g><g id="sun"><ellipse class="cls-3" cx="401.63" cy="146.35" rx="78.64" ry="67.85"/></g><g id="rightmountain"><path class="cls-4" d="M370.26,366.59a11,11,0,0,0,1,5.83c1.75,3.16,5.61,3.84,8.58,4.35,7.09,1.2,14.14.88,21.26.23,3.4-.32,6.8-.5,10.19-.65,5.07.33,10.07,1.14,15.19,1.28,6.38.17,12.67-1.77,19-2.08,6.66-.33,13.29-1.3,19.91-2.25,10.24-.76,20.48-1.43,30.73-1.66,16-.35,32-.9,48-2s32-2.43,48-3.3,32.18-2.07,48.27-2.32a158.51,158.51,0,0,1,23.85,1.22c7.66,1.05,15.29,2.42,23,3.41,30.1,3.9,60.58,5.25,90.79,2l1.11-.11c5.52,1,12.63.92,15-5.12,1.4-3.6,1-8.2,1.21-12,.25-5.37.48-10.75.64-16.12.59-19.26-.17-38.54.33-57.8.26-9.7,1.16-19.35.69-29.07-.44-9.22-1.68-18.36-2-27.59s.61-18.38.3-27.59c-.34-9.8-.85-19.59-1-29.4a269.33,269.33,0,0,1,.75-28.13c.83-9.31,2.26-18.5,2.37-27.88.09-7.83-10.32-8-11-.63-2.06.35-4.08,1-6.18,1.16-3.48.26-6.87-1.2-10.23-2a41.27,41.27,0,0,0-6.51-1,18.14,18.14,0,0,0-3.36-.65c-6.23-.55-11.59,2.59-16.09,7.23-4.09,4.23-7.26,10.51-12.12,13.68a18.81,18.81,0,0,1-7.53,2.63c-3.26-.17-6.51-.49-9.78-.37-5.05.18-10.29-.72-15.13.87A20,20,0,0,0,694.8,132c-6.51,2.87-11.56,8.58-15.88,14.63-2,2.79-11.61,17.38-19.33,23.85a11.16,11.16,0,0,1-2.08,0,16.48,16.48,0,0,1-4-1l-.18-.06a18.81,18.81,0,0,1-3.8-2c-1.78-1.22-4.34-2.41-6.32-1-1.46,1.05-1.72,3.33-2.28,5.12a7.1,7.1,0,0,0-.3.81,11.81,11.81,0,0,1-5,5.57c-4.51,2.71-9.67,3.62-13.88,7.05a18.3,18.3,0,0,1-6.3,3.61,25.39,25.39,0,0,0-7.2,3.17,47.77,47.77,0,0,0-6.65,5.63,36.91,36.91,0,0,0-5.41,6.31,35.1,35.1,0,0,0-2.1,3.88c-1,1-1.89,2.08-2.79,3.18a92.14,92.14,0,0,0-6.83,10.38c-4.3,1.2-8.59-3.36-12.65-5.4-6-3-12.53-4.18-18.55-.75a38.39,38.39,0,0,0-6.69,5.21c-3.88,3.1-7.45,6.6-10.72,9.54-.78.7-1.54,1.42-2.29,2.16-1.54,1.16-3.09,2.3-4.6,3.52a68.74,68.74,0,0,0-7.19,7,84.11,84.11,0,0,1-7.27,7.35c-2.57,2.18-5.52,3.33-8.18,5.28a8.84,8.84,0,0,0-2.83,3.43,14.85,14.85,0,0,1-2.26,3.91c-2.31,2.51-5.29,4-7.55,6.62a1.14,1.14,0,0,0-.07,1.43,13.72,13.72,0,0,1-1.44,2.68,34.54,34.54,0,0,1-12.15,6.62c-1.19.4-2.37.74-3.55,1.05-2.31.26-4.63.36-6.94.42a36.66,36.66,0,0,1-8.61-.83c-2.7-.56-5.4-.91-8.06.1-5.51,2.09-9.08,7.87-14.23,10.69-.66.29-1.32.6-2,.92-6.43,2.55-13.78,1.83-20.43,1.33s-13.84-1.16-20.43,1.07a22.68,22.68,0,0,0-11.34,8.93,38.87,38.87,0,0,0-3.25,5.82c-1.1,1.7-2.12,3.43-3,5.13-3.11,6-3.67,12.83-4.86,19.48,0,.33-.12.66-.18,1a34.15,34.15,0,0,0-1.35,6.49c-1.15,5.33-2.26,10.67-2.16,16.22A51.52,51.52,0,0,0,370.26,366.59Zm274-198.19a2.15,2.15,0,0,1,2.44-.13A4.55,4.55,0,0,0,644.28,168.4ZM416.52,295.77c2.29.18,4.6.35,6.89.41a28.69,28.69,0,0,1-3.21.1A18,18,0,0,1,416.52,295.77Z" transform="translate(8.26 4.34)"/></g><g id="leftmountain"><path class="cls-5" d="M454.45,373c.1-4.89-1.09-9.61-2.34-14.31a25.34,25.34,0,0,0-1.46-5.71c-.07-.3-.14-.59-.2-.88-1.28-5.86-1.89-11.92-5.25-17.18a50.92,50.92,0,0,0-3.25-4.52,32.52,32.52,0,0,0-3.52-5.14,24.46,24.46,0,0,0-12.26-7.88c-7.13-2-14.78-1.38-22.1-.93s-15.14,1.07-22.1-1.18l-2.13-.81c-5.57-2.49-9.43-7.59-15.4-9.43-2.87-.89-5.79-.58-8.71-.09a48.4,48.4,0,0,1-9.31.73c-2.5-.05-5-.14-7.51-.37-1.28-.27-2.55-.57-3.84-.92a40.61,40.61,0,0,1-13.15-5.84,11.73,11.73,0,0,1-1.55-2.36.89.89,0,0,0-.07-1.27c-2.46-2.28-5.68-3.62-8.18-5.83a13.11,13.11,0,0,1-2.44-3.45,8.47,8.47,0,0,0-3.06-3c-2.88-1.72-6.07-2.73-8.84-4.65a86.42,86.42,0,0,1-7.88-6.48,69.53,69.53,0,0,0-7.77-6.18c-1.63-1.08-3.31-2.08-5-3.1-.82-.65-1.64-1.29-2.48-1.91-3.55-2.59-7.41-5.68-11.6-8.41a42,42,0,0,0-7.24-4.6c-6.51-3-13.63-2-20.06.66-4.4,1.8-9,5.83-13.68,4.77a82.71,82.71,0,0,0-7.4-9.16c-1-1-2-1.9-3-2.8a29.32,29.32,0,0,0-2.26-3.42,36,36,0,0,0-5.86-5.57,50.68,50.68,0,0,0-7.19-5,31,31,0,0,0-7.79-2.8,21.39,21.39,0,0,1-6.82-3.18c-4.55-3-10.13-3.83-15-6.23a11.52,11.52,0,0,1-5.4-4.9A5.83,5.83,0,0,0,161,209c-.61-1.57-.89-3.58-2.46-4.52-2.15-1.26-4.91-.21-6.84.86a22.22,22.22,0,0,1-4.12,1.79l-.19.06a22,22,0,0,1-4.3.86,14,14,0,0,1-2.24,0c-8.35-5.7-18.77-18.57-20.91-21-4.67-5.35-10.14-10.38-17.19-12.91a25.78,25.78,0,0,0-5.14-1.22c-5.23-1.4-10.9-.61-16.37-.77-3.54-.1-7,.18-10.57.33a23.6,23.6,0,0,1-8.16-2.32c-5.25-2.8-8.67-8.34-13.11-12.06C44.58,154,38.77,151.22,32,151.7a24,24,0,0,0-3.62.57,54,54,0,0,0-7.06.91c-3.63.72-7.29,2-11.06,1.78-2.27-.14-4.46-.71-6.68-1-.7-6.51-12-6.35-11.87.55.12,8.28,1.66,16.38,2.56,24.59a193.9,193.9,0,0,1,.82,24.81c-.16,8.65-.71,17.29-1.07,25.93-.34,8.12.61,16.22.32,24.33s-1.65,16.21-2.12,24.34c-.51,8.57.47,17.08.74,25.63.54,17-.28,34,.36,51,.18,4.74.42,9.48.69,14.21.2,3.39-.2,7.45,1.32,10.62,2.55,5.33,10.24,5.4,16.21,4.52l1.2.09c32.68,2.89,65.64,1.69,98.21-1.75,8.3-.87,16.55-2.08,24.84-3a207.62,207.62,0,0,1,25.8-1.08c17.39.22,34.83,1.28,52.21,2.05s34.61,1.93,51.92,2.9,34.56,1.46,51.88,1.77c11.09.2,22.17.8,33.24,1.46,7.17.84,14.33,1.7,21.54,2,6.88.27,13.69,2,20.58,1.83,5.55-.12,10.95-.83,16.44-1.13,3.67.13,7.34.3,11,.57,7.7.58,15.33.86,23-.2,3.21-.44,7.38-1.05,9.27-3.83a8.17,8.17,0,0,0,1.13-5.15A37.36,37.36,0,0,0,454.45,373ZM154.8,206.07a2.74,2.74,0,0,1,2.64.11A6,6,0,0,0,154.8,206.07Zm245,112.9c-1.15,0-2.31,0-3.47-.09,2.48-.05,5-.2,7.45-.36A24.86,24.86,0,0,1,399.83,319Z" transform="translate(8.26 4.34)"/></g><g id="hole"><path class="cls-6" d="M340,417.08a42.92,42.92,0,0,0-10.12-4.2,6.32,6.32,0,0,0-4.43-.09c-2.19,1-.51,4.17,1.63,3.6a1.06,1.06,0,0,1,.23,0h.12l.37.07a22.07,22.07,0,0,1,2.41.68c1.66.56,3.29,1.22,4.89,1.93,3.16,1.42,6.16,3.15,6.71,6.89a16.38,16.38,0,0,1-.53,6.07,14.3,14.3,0,0,1-2.32,5.35c-2.06,2.74-5.28,4.2-8.5,5.08a82.58,82.58,0,0,1-11.4,1.86c-5.5.69-11,1.52-16.48,2-12.12,1.11-24.29,1.41-36.45,1.46q-18.49.06-37-.17c-12.48-.17-24.94-1.13-37.38-2.22-5.91-.52-11.86-.9-17.75-1.66a71.69,71.69,0,0,1-13.92-3.43,68.26,68.26,0,0,1-8.78-3.43,19.11,19.11,0,0,1-3.89-2.44,9.94,9.94,0,0,1-1.15-1.2,2.45,2.45,0,0,1-.62-1.45c.07.52.07-.74,0-.26a3.54,3.54,0,0,1,.21-.79,5.33,5.33,0,0,1,1-1.33,16.22,16.22,0,0,1,4.39-2.82,78.41,78.41,0,0,1,10.5-3.82c5.9-1.88,11.62-4.42,17.68-5.73l.87-.17a1.81,1.81,0,0,0,1.8,1.24,2,2,0,0,0,1.82-2.67A2.06,2.06,0,0,0,182.6,413a7.59,7.59,0,0,0-3.84.14,49.16,49.16,0,0,0-4.9,1.31c-3.48,1.07-6.9,2.31-10.33,3.54-3.09,1.1-6.25,2-9.33,3.11-3.71,1.36-8,3-10.69,6.06a6.7,6.7,0,0,0,.11,9.21c2.39,2.72,6,4.29,9.27,5.63s6.48,2.42,9.76,3.45a82.57,82.57,0,0,0,17.67,3c13.29,1.16,26.57,2.44,39.9,3s26.44.39,39.65.42,26.28-.13,39.38-1.18c6.21-.49,12.37-1.3,18.54-2.15,4.1-.56,8.24-.88,12.29-1.8s7.86-2.45,10.73-5.36c3.27-3.3,4.65-8,5-12.49A12,12,0,0,0,340,417.08Z" transform="translate(8.26 4.34)"/><path class="cls-6" d="M308.06,408.43a38.5,38.5,0,0,1-4.92-.22q-.34,0-.69-.12a2,2,0,1,0-1.06,3.86,21.53,21.53,0,0,0,3.31.4c1.12.07,2.24.09,3.36.08a2,2,0,0,0,0-4Z" transform="translate(8.26 4.34)"/><path class="cls-5" d="M185,442.67c.21-4.5-1.69-8.77-1.7-13.25,0-4.16,1.25-8.25.51-12.36a1.92,1.92,0,0,0-1.07-2.61,1.85,1.85,0,0,0-1.25-.45,1.88,1.88,0,0,0-1.45.63l-.09.1a24.21,24.21,0,0,0-3.56,1.23c-1.88.8-3.81,1.49-5.73,2.2-3.69,1.37-7.33,2.89-11,4.28-3.86,1.45-8,2.35-11.57,4.46-1.53.9-3,2.25-3,3.94a2.46,2.46,0,0,0-.47,1.22c-.29,2.69,3,4.62,5,5.67,3,1.58,6.29,2.27,9.5,3.26a111.32,111.32,0,0,0,24.38,4.89C185.4,446,185.88,443.88,185,442.67Z" transform="translate(8.26 4.34)"/><path class="cls-5" d="M338.85,419.26c-2.68-2.91-6.77-3.38-10.29-4.67a1.83,1.83,0,0,0-1.95.57,2.13,2.13,0,0,0-1.4,3c.65,1.36-.17,3.32-.53,4.66-.53,2-.76,4.06-1.09,6.11s-.73,4.3-.91,6.49a48.58,48.58,0,0,1-.74,6.36,2,2,0,0,0,1.4,2.46,9.68,9.68,0,0,0,4.73-.55c1.56-.48,3.14-.8,4.71-1.24,3.51-1,6.93-2.85,8.82-6.08C344.77,430.94,342.89,423.67,338.85,419.26Z" transform="translate(8.26 4.34)"/><path class="cls-5" d="M310.81,412.15a.44.44,0,0,0-.21-.39.48.48,0,0,0-.33-.63,11.38,11.38,0,0,0-1.3-.1,2.24,2.24,0,0,0-1-.33,11,11,0,0,0-4.93.6,1.84,1.84,0,0,0-1.7-.36,1.91,1.91,0,0,0-.52.25l-.31-.05a.53.53,0,0,0-.61.35c-.52,1.39,0,3,.13,4.36.14,1.2-.08,2.4-.05,3.6a35.18,35.18,0,0,0-.64,8.92s0,.06,0,.1c.06,1.23.17,2.47.25,3.71l0,.59c0,.49-.06,1-.07,1.45a.44.44,0,0,0,.18.38,16.06,16.06,0,0,1-.34,3.24c-.14.63.82.89,1,.26a13,13,0,0,0,.26-1.64.27.27,0,0,0,.09-.12c.76-1.61,1.56-3.2,2.33-4.79a1.57,1.57,0,0,0,.65-1.07c0-.15.05-.3.07-.44l0,0c.28-.61.55-1.22.8-1.84a.5.5,0,0,0,.15-.14,34.79,34.79,0,0,0,2.46-4.48,15.28,15.28,0,0,0,1.5-4.4.4.4,0,0,0-.13-.36A16.31,16.31,0,0,0,310.81,412.15Z" transform="translate(8.26 4.34)"/></g><g id="monsterbody"><path class="cls-7" d="M299.68,430.4a140.17,140.17,0,0,0-.46-18.22,11.16,11.16,0,0,0,.8-4.36c0-8.25-2.93-18.4-9.08-24.8a10.62,10.62,0,0,0-4.93-7.6,14.53,14.53,0,0,0-1.85-1,13.67,13.67,0,0,0,.13-1.74V370.3a24.83,24.83,0,0,0,.65-6.43,10.77,10.77,0,0,0-.8-3.8c-.05-1.11-.11-2.22-.19-3.33-.43-5.69-1.85-11-2.77-16.57-.74-4.52-.56-9.12-2.12-13.51-.36-1-.69-2-1-3.06a18.14,18.14,0,0,0-4.23-15.11,9.09,9.09,0,0,0-3.43-5.95c-.73-.6-1.48-1.17-2.24-1.7v0c-.13-.09-.28-.17-.42-.25a24.6,24.6,0,0,0-4.84-2.58,64.31,64.31,0,0,0-8.93-3.28c-5.07-1.48-9.61-1.09-14.53-.67a9.07,9.07,0,0,0-2.23-.14c-7.36.39-16.64,4-21.75,9.58-6.3,6.83-7.1,16.61-8.07,25.37s.1,17.53-.28,26.35c0,.93-.07,1.86-.11,2.79a38.06,38.06,0,0,0-1.36,12c0,.68,0,1.35,0,2a22.15,22.15,0,0,0,.69,5.14c-.34,1-.68,2.09-1,3.12a33.26,33.26,0,0,1-5.38,10.51,10,10,0,0,0-1.61,2c-.82.95-1.67,1.87-2.56,2.72l-.3.35a9.17,9.17,0,0,0-4.54,4.3l-.12.27a9,9,0,0,0-4.47,6.34,42.74,42.74,0,0,0-.76,7.54,11.28,11.28,0,0,0-.16,5.89,12.32,12.32,0,0,1,0,2.72,11.69,11.69,0,0,0-.43,1.55,18.9,18.9,0,0,0-.33,2.94h-.06c0,.24,0,.46.05.69,0,2.19.26,4.27.43,6.28a15,15,0,0,0,.21,1.52,13.13,13.13,0,0,0,.32,1.84,4,4,0,0,0-.95,3.62,2.2,2.2,0,0,0-.14.6c-.31,3.25,4.25,3.88,6.51,4.15a59,59,0,0,0,7.4.15c1.21.08,2.42.13,3.64.17,2.38.27,4.71,1,7.12,1.16,2.61.19,5.23.12,7.84.15a70.41,70.41,0,0,1,7.69.28,23,23,0,0,0,3.7.32c1.33-.07,2.66-.23,4-.35a70,70,0,0,1,8.57.14c.49,0,1,0,1.48,0,8.65,1,17,1.75,25.7,1a122.4,122.4,0,0,1,13.41-.5,54,54,0,0,0,7.63-.21,49.82,49.82,0,0,0,6.11,0,10.4,10.4,0,0,0,1.73-.35,1.91,1.91,0,0,0,.7-.25l.05,0a3.11,3.11,0,0,0,1.9-2.18,11.81,11.81,0,0,0,.12-2.45A12.16,12.16,0,0,0,299.68,430.4Zm-24.08-8.69c-3.84.61-7.58,1.78-11.47,2-4.52.2-9.09,0-13.61,0-9,0-18.05-.22-27.07,0-4.23.09-8.46.74-12.7.63-.74,0-1.49-.07-2.23-.1v0a11.17,11.17,0,0,0,.53-2.93c0-1.22,0-2.44.07-3.66,0-.21.06-2.13,0-2.07.1-.74.25-1.49.4-2.22,0,0,.15-.48.29-1a12.65,12.65,0,0,0,1.48-1.21c.56-.53,1.08-1.09,1.61-1.64.69-.69,1.38-1.36,2.08-2a11.45,11.45,0,0,0,6.21-1.11,12.17,12.17,0,0,0,2.32-1.51,16.64,16.64,0,0,0,6.55-1.33,21.89,21.89,0,0,0,4,.28,13.39,13.39,0,0,0,4.43,2.08A17.86,17.86,0,0,0,251.25,404a15.55,15.55,0,0,0,10.6,2.41,15.12,15.12,0,0,0,11.28-7.6c3.37,6.88,4.37,14.73,4.58,22.6C277,421.51,276.28,421.61,275.6,421.71Z" transform="translate(8.26 4.34)"/><path class="cls-7" d="M292.11,391c-2.67-5-8.21-6.05-12.91-4.57a10.89,10.89,0,0,0-5.45-1.36,10,10,0,0,0-9.87,6.73,12.68,12.68,0,0,0-4.89,1.51A12.63,12.63,0,0,0,249.6,395c-.3.18-.58.37-.85.57a12.64,12.64,0,0,0-2.68.2,13.8,13.8,0,0,0-8.08.38,15.43,15.43,0,0,0-8.68-1.51,12.25,12.25,0,0,0-5.15,1.69,22.76,22.76,0,0,0-2.29-.28,9.73,9.73,0,0,0-4.57.94c-2-2.89-5.25-5-8.79-4.55-8.53,1-14.26,5.47-17.32,13.5a34.27,34.27,0,0,0-1.9,17.42c1.45,8.08,9.18,13.1,16.87,14.5a16.4,16.4,0,0,0,7.37-.35,15.35,15.35,0,0,0,5.79.51l.38.09c10.51,1.74,20.8,1.17,31.39.64,9-.46,17.88-1.82,26.29-5.17,2.76-1.09,5.62-2.15,8.28-3.43a11,11,0,0,0,8.73-6.87,14.86,14.86,0,0,0,2.38-7C297.52,407.76,296.13,398.48,292.11,391Z" transform="translate(8.26 4.34)"/><path class="cls-8" d="M220.28,429.61c0-2.63,0-5.26-.23-7.88-.71-9-4-19.05-12.69-23.26-2.56-1.24-7.42-3.55-9.58-.52-1.12,1.57,1.48,3.07,2.59,1.51-.11.17.36,0,.56,0a7.44,7.44,0,0,1,1.91.38,21.76,21.76,0,0,1,3.54,1.45,18,18,0,0,1,7.36,7.61c4.24,7.94,3.62,17.69,3.51,26.4,0,2.17-.52,4.26-.66,6.41,0,.69-.05,1.39-.09,2.09,0,.35,0,.72-.08,1.07a1.68,1.68,0,0,1-.07.3,1.23,1.23,0,0,1,.2-.2l-.21.21c-.05.13-.09.12,0,0-1,1.25,1,3.06,2.34,1.89,1-.83.81-2.84.86-4,.09-2,.42-3.6.61-5.73C220.38,434.83,220.27,432.2,220.28,429.61Z" transform="translate(8.26 4.34)"/><path class="cls-8" d="M216.35,445.2l0,0v0Z" transform="translate(8.26 4.34)"/><path class="cls-8" d="M300.1,399.47c-1.13-4.59-3.38-8.78-5.41-13-1.08-2.25-1.65-4.88-3.22-6.87-1.05-1.34-3.35-2.45-3.67-4.22a1.21,1.21,0,0,0-1-1.06l-.32-.33-.28-.29-.13-.14a1.31,1.31,0,0,0-.12-.15v0l-.12-.18a4.32,4.32,0,0,1-.22-.43.3.3,0,0,0-.07-.1,14.76,14.76,0,0,0,.15-1.75c.08-2.63-.26-5.28-.34-7.91-.13-3.64-.13-7.29-.23-10.93-.2-7.23-.78-14.59-3.31-21.43l-.55-1.44a65.72,65.72,0,0,0-1.06-7.1,55.82,55.82,0,0,0-3-11.74,26.12,26.12,0,0,0-12.07-12.82,43.76,43.76,0,0,0-17.37-4.92c-7.3-.57-15,.24-21.68,3.47-2.06,1-4.13,2.05-6.1,3.24-1.59,1-3,2.16-4.56,3.18-2.58,1.68-5.89,3.57-6.14,7-.14,1.93,2.86,1.92,3,0,.07-1,1.1-1.86,1.83-2.46a38.1,38.1,0,0,1,3.19-2.17c1.24-.83,2.38-1.79,3.63-2.59,1.57-1,3.21-1.83,4.86-2.67a35,35,0,0,1,10.24-3.53,49.94,49.94,0,0,1,10-.55c10.3.41,22.37,4.47,27.53,14.1a23.63,23.63,0,0,1,1,2.22,1.44,1.44,0,0,0-.55,2.41c1.46,1.37,1.43,4.15,1.61,6a28.82,28.82,0,0,0,1.88,7.74c.26.68.52,1.36.77,2a13.14,13.14,0,0,1-.25,2.67,1.58,1.58,0,0,0,1.8,1.86c.3,1,.57,2,.79,3a64.59,64.59,0,0,1,1.22,9.51c.4,6.33.18,12.69.59,19,.19,3,1.23,8.37-2.41,9.8-5.43,2.14-10.42-2-12.33-6.79a1.52,1.52,0,0,0-2.51-.67,21.72,21.72,0,0,0-2.35,4c-.59,1.08-1.46,2.65-2.94,2.27-1.28-.33-2-2.35-2.51-3.41a6.29,6.29,0,0,0-1.86-2.47c0-.11,0-.23,0-.35-.15-1.91-3.15-1.93-3,0a5.66,5.66,0,0,1-.59,2.26,23.61,23.61,0,0,1-1.79,3.37c-1.24,2-2.88,4.51-5.1,5.56a1.36,1.36,0,0,1-1.64-.47,8.14,8.14,0,0,1-1.49-3.09c-.8-2.44-1.26-5.27-3-7.24a1.51,1.51,0,0,0-2.36.31c-1.17,2.59-2,5.62-4,7.79-1.63,1.83-5.3,4-7.73,2.5s-1.71-4.51-1.33-6.59c.21-1.2.48-2.68-.18-3.79a2.38,2.38,0,0,0-3.51-.56,8.76,8.76,0,0,0-2.25,3.12,13.23,13.23,0,0,1-2.73,3.49,6,6,0,0,1-7.77,0c-1.76-1.61-1.49-4.45-1.15-6.58.49-3,1.25-6,1.64-9.09.32-2.52.53-5,.74-7.57.19-2.35.58-4.76.54-7.13-.07-4.1-1.83-8.38-1-12.47.36-1.88-2.53-2.69-2.89-.8-.77,4,.53,7.94.86,11.9a37.71,37.71,0,0,1-.3,6.37c-.21,2.45-.39,4.9-.64,7.34-.37,3.52-1.16,6.9-1.76,10.37-.4,2.4-.68,5.09.26,7.39a1.56,1.56,0,0,0-.22.7,30.72,30.72,0,0,1-1.94,7.91A17.51,17.51,0,0,1,197,390c-1.74,1.79-3.62,3.42-5.3,5.27a29,29,0,0,0-4.2,6.37,54.43,54.43,0,0,0-3.18,7.21,34.62,34.62,0,0,0-1.49,8.27c-.27,3-.49,6-.57,9a64.94,64.94,0,0,0,.55,8.7c.18,1.83.09,3.66.2,5.49.1,1.53.14,3.92,1.67,4.79a1.5,1.5,0,0,0,1.67-2.48.37.37,0,0,1,0-.12c0-.33-.16-.66-.21-1a22.41,22.41,0,0,1-.16-2.32c-.06-1.69,0-3.35-.23-5a54.53,54.53,0,0,1-.46-8.28c.09-2.91.3-5.83.56-8.73a31.37,31.37,0,0,1,1.59-8.08,61.08,61.08,0,0,1,3.28-7.06c2.25-4.34,6-7.16,9.23-10.71a20.1,20.1,0,0,0,4.18-7,40.64,40.64,0,0,0,1.75-6.34,9.55,9.55,0,0,0,6.5,1.54c3.39-.45,6-3.13,7.63-6,.2-.34.39-.69.58-1-.11.51-.23,1-.32,1.53-.5,2.93.46,6.42,3.11,8,3.3,2,7.72.25,10.4-2,2.1-1.78,3.23-4.25,4.28-6.74.43,1.25.69,2.62,1.06,3.74.7,2.13,1.7,4.6,4,5.47,4.42,1.69,8.35-4.51,10.15-7.61.44-.75.94-1.61,1.37-2.52a2.25,2.25,0,0,1,.12.21c.44.82.84,1.68,1.35,2.46a5,5,0,0,0,4.54,2.7,5.6,5.6,0,0,0,4.34-2.91,22,22,0,0,0,1.19-2.32c2.27,3.84,5.83,6.65,10.6,6.8,2.46.08,5.24-.47,7-2.38a6.23,6.23,0,0,0,.83-1.17l.18.29.24.27c.37,1.62,1.73,2.77,2.91,3.84a12.44,12.44,0,0,1,3.12,5.21c1.7,4.32,4.16,8.3,5.6,12.74,3.16,9.71,1.53,20.32,1.4,30.32-.07,5.75-.38,11.51-.19,17.25.06,1.92,3.06,1.93,3,0-.34-10.35.48-20.74.63-31.08A59.3,59.3,0,0,0,300.1,399.47Z" transform="translate(8.26 4.34)"/><path class="cls-9" d="M217.16,315.32c-1.7-3.94-5.87-4.77-9.66-5.56-.35-.21-.69-.42-1-.66-8.19-5.65-10-17.5-9.26-26.74.43-5.54,1.47-11.43,6.17-15,1.27-1,.61-3.24-1.16-2.74-3.35.94-5.94,3.56-8.07,6.2s-4.14,5.7-6.12,8.59a24.87,24.87,0,0,0-3.89,10.9.34.34,0,0,1-.06.06c-2.06,2.41-2,5.63-1.87,8.62.13,3.73-.1,7.48.25,11.2.42,4.55,1.33,9.5,4,13.33a5,5,0,0,0,1.09,1.41l0,0a11.33,11.33,0,0,0,5.71,3.45l.64.31a25.8,25.8,0,0,0,5.15,2.14,29.41,29.41,0,0,0,6.88.73c3.76,0,8.66-.93,10.78-4.39a11.69,11.69,0,0,0,1.39-5.89A15.08,15.08,0,0,0,217.16,315.32Z" transform="translate(8.26 4.34)"/><path class="cls-9" d="M299.9,272.67c-3.77-5.27-9.74-8.38-15.86-10.21a5.62,5.62,0,0,0-3-.75c-1.63.08-2.11,2.53-.4,3q1.13.27,2.25.6c1.61,1,2.9,3.21,3.73,4.59a80.29,80.29,0,0,1,4.3,8.73c1.68,3.77,2.92,7.38,2.56,11.58a19.65,19.65,0,0,1-12.71,16.45c-1.73.61-4,.59-5.08,2.35a1.39,1.39,0,0,0,.44,1.93,1.18,1.18,0,0,0,.22,1.06c1.7,2.24,1.57,5.65,2.09,8.32a4,4,0,0,0,1.84,3,6.63,6.63,0,0,0,4.46.38c6-1,12.28-4.2,16-9.08,4.6-6,4.11-13.93,4.74-21.06A31.7,31.7,0,0,0,299.9,272.67Z" transform="translate(8.26 4.34)"/></g><g id="hand"><path class="cls-7" d="M350.88,372.43a10.21,10.21,0,0,0,2.11-5c.14-1.65-2-1.8-2.8-.75a11.22,11.22,0,0,0-1.3,2.86c-.2.51-.44,1-.69,1.49l-.06.08a36.59,36.59,0,0,0-2.39,3.5l-.43.71-.27.28c-.3.26-1.69,1.37-2,1.12a1.64,1.64,0,0,0-.26-.17c0-.27-.08-.53-.11-.81a4.37,4.37,0,0,1,.58-2.41c.8-1.86,1.55-3.74,2.33-5.6a38.3,38.3,0,0,0,1.54-5.74,9,9,0,0,1,.32-1,9.37,9.37,0,0,0,1.21-3.73c.05-.23.09-.47.13-.7l0-.13a1.42,1.42,0,0,0,.21-1.2v-.29a1.5,1.5,0,0,0-3,0,2.83,2.83,0,0,1-.05.5c0,.05,0,.09,0,.14v.08a.77.77,0,0,0-.07.16c-.67,2.09-1.42,4.16-2.21,6.22a40.22,40.22,0,0,1-2.09,5.34,18.92,18.92,0,0,0-1.29,2.49,19.45,19.45,0,0,1-1,2.31,2.55,2.55,0,0,1-3.3,1.42l-.3-.49a3.4,3.4,0,0,1-.47-2.18,26.55,26.55,0,0,1,.59-4.62c0-.15.06-.3.1-.45a1.44,1.44,0,0,0,.32-.45c1.34-2.88,2.26-5.94,3.63-8.81a1.53,1.53,0,0,0,.06-1.2,6.22,6.22,0,0,0,.39-1.27c.23-1.2.43-2.9-.77-3.66-1.52-1-2.71.56-3.28,1.78-1.78,3.84-2.35,8.14-3.12,12.26-.17.91-.46,1.8-.62,2.71-.06.3-.09.59-.12.89a1.35,1.35,0,0,0-1.3,1.06c-.17.69-.49,1.88-1.12,2.26a2.74,2.74,0,0,1-.87.32,4.76,4.76,0,0,1-.93-1.82,1.48,1.48,0,0,0-1-1c.2-1.48.34-3,.41-4.46.13-2.63.06-5.27.28-7.9.11-1.23.29-2.46.41-3.7a4,4,0,0,1,.66-2.43c1.39-1.35-.73-3.47-2.12-2.12s-1.4,3.43-1.61,5.25c-.26,2.18-.41,4.33-.48,6.5a1.13,1.13,0,0,0-.39.67,32.6,32.6,0,0,0-.51,6,1.42,1.42,0,0,0-.19.45,7.86,7.86,0,0,0,.08,4.17,21.47,21.47,0,0,1-.6,2.08,8.1,8.1,0,0,1-1.27,2.82,2.17,2.17,0,0,0-.23.3,5.44,5.44,0,0,1-1.45.38l-.72,0a.46.46,0,0,0-.35.15l-.27-.27a.43.43,0,0,0-.07-.16c-.32-.5-.66-1-1-1.45a.14.14,0,0,1,0-.06,19.8,19.8,0,0,1-.07-2.67c0-1,.18-2,.26-3.06a2.53,2.53,0,0,0,.16-.33,3.8,3.8,0,0,0,.13-1.95,5.36,5.36,0,0,0-.43-1.28A12.75,12.75,0,0,0,317,364a1.51,1.51,0,0,0-.71-.61,1.44,1.44,0,0,0-1-.08,2.73,2.73,0,0,0-1,.65,3,3,0,0,0-.53.75,6,6,0,0,0-.34,1,4.21,4.21,0,0,0-.12.48l0,.23a6.63,6.63,0,0,0-.45,1.75,9.67,9.67,0,0,0,0,4.38c0,3.39.13,6.86,1.7,9.89a.44.44,0,0,0,.26.23l.42,1.31a12.17,12.17,0,0,0,.86,2.64s0,0,0,.07c.5,2.31,1.61,4.07,1.53,6.53a28.42,28.42,0,0,1-1.24,6.58,3.73,3.73,0,0,0-.05,2c-1.33,3.77-2.77,7.47-4.3,11.17a59.24,59.24,0,0,0-3,11.41l-.07.09c-.48.72-.92,1.47-1.35,2.21a4,4,0,0,0-2.26,2.52c-.29.9-.57,1.79-.86,2.67-.94,2.24-2.24,4.38-3,6.69a9.46,9.46,0,0,1-.64.78c-3.37,3.84,2.05,9.4,5.66,5.66l.35-.35.09,0c1.69-.83,4.46-.07,6.3-.23a50.34,50.34,0,0,0,5.72-1,4,4,0,0,0,2.94-3.85c0-6.42,2.44-12.49,3.41-18.79.58-3.79.68-7.74,1.06-11.6a3.16,3.16,0,0,0,.76-1.32h0a3.53,3.53,0,0,0,.48-.9,8.48,8.48,0,0,0,.45-1.64,23.32,23.32,0,0,0,.63-4.06,3.25,3.25,0,0,0-.12-1c.09-.33.17-.65.26-1a10.83,10.83,0,0,1,3.39-4.27,7.61,7.61,0,0,0,3.22-1.2l.46-.27.11,0a8.77,8.77,0,0,0,3-2.25,12.53,12.53,0,0,0,2.23-2.53c.57-.68,1-1.44,1.61-2.12a18.29,18.29,0,0,0,2.14-2.59,1.4,1.4,0,0,0,.2-.71c.42-.58.83-1.17,1.24-1.76a1.37,1.37,0,0,0,.24-.72l.34-.6a27.64,27.64,0,0,0,2.3-4.66,2.14,2.14,0,0,0,.06-.35,21.19,21.19,0,0,0,1.52-2.53Z" transform="translate(8.26 4.34)"/><path class="cls-8" d="M353.71,365.26c-1-1.1-2.46-.51-3.34.44a28,28,0,0,0-2.74,3.91c-1,1.55-1.83,3.21-2.86,4.74-.13.19-.95,1.4-1.2,1.3s.31-1.28.39-1.45c.54-1.31,1.36-2.53,2-3.79a29,29,0,0,0,2.17-6c.49-1.82,1.35-3.5,1.93-5.28s1.37-5.05-.36-6.62a2.86,2.86,0,0,0-3.29-.3,5.52,5.52,0,0,0-2.11,3.11c-.51,1.43-.81,2.92-1.26,4.36-.67,2.16-1.45,4.3-2.33,6.39-.54,1.27-1.09,2.57-1.71,3.82-.26.53-1.2,2.72-2,2.58s-.52-2.39-.45-2.89a24.84,24.84,0,0,1,1-4c1-3.11,2.65-5.88,3.74-8.93.91-2.52,1.45-7.88-2.66-7.7-3.65.15-4.91,5.3-5.61,8.08a51.58,51.58,0,0,0-1.05,6.31c-.23,1.94-.41,4.46-1.62,6.09-.5.66-1,.6-1.41-.14a7.57,7.57,0,0,1-.31-3.32,69.39,69.39,0,0,1,.73-7c.15-1.16.29-2.32.36-3.48a20.2,20.2,0,0,1,.24-3.3c.41-1.74.82-3.57-.65-4.94-2.52-2.36-4.6,1.82-5.25,3.75-1.38,4.11-1.22,8.52-1.62,12.79-.23,2.43-.52,4.86-.55,7.31a.89.89,0,0,0,.38.77c-.46,1.29-.9,2.73-2.14,3.26-.52.21-1,.31-1.23-.25-.38-1,0-2.62.15-3.61A20.92,20.92,0,0,0,319,365c-.24-1.38-.46-2.89-2.16-3-3.71-.24-5.83,4-5.91,7.14a38.52,38.52,0,0,0,.93,6.91c.38,2.4.62,4.82,1,7.22.39,2.23,1.69,4,2.46,6.05a8.82,8.82,0,0,1,.73,4.13,1,1,0,0,0-.27.4c-.72,1.84-.49,3.86-.91,5.77a59.68,59.68,0,0,1-1.85,6c-.64,2-1.24,3.93-1.87,5.9s-1.47,3.94-2,6-.75,4.09-1.78,6c-.88,1.59-2,3-3.06,4.49a17.53,17.53,0,0,0-1,1.57,1.63,1.63,0,0,0-.17.2c-1.44,2.61-2.92,5-3.12,8.1l0,.38-.1.17a.8.8,0,0,0,0,1.05,13.56,13.56,0,0,0,.47,5.64,1,1,0,0,0,.36,1.29c1.93,1.28,4.1.11,6.16-.09,1.29-.12,2.59-.05,3.89-.14s2.51-.27,3.75-.46,2.36-.47,3.49-.59c.59-.06,1.18-.05,1.77-.12,1.31-.16,2.84-.76,2.69-2.36a.94.94,0,0,0-.13-.42c.5-3.6,1-7.17,1.83-10.71.9-3.74,1.18-7.55,1.78-11.33s1.35-7.54,2.26-11.25c.47-1.89,1-3.75,1.47-5.64.39-1.6.39-3.44,1.3-4.86a.92.92,0,0,0,.14-.68c1.7-.83,3.49-1.46,5.13-2.4a15.1,15.1,0,0,0,4.39-4c2.62-3.33,5.22-6.79,7.54-10.34a64.15,64.15,0,0,0,3.35-5.88,32.07,32.07,0,0,0,2.55-5.4C354.48,368.32,354.78,366.4,353.71,365.26Zm-1.4,3.27c-.43,2.05-1.66,3.85-2.59,5.7a68.55,68.55,0,0,1-6.93,10.82c-2.39,3.09-4.37,6.76-7.92,8.66-1.74.94-3.61,1.57-5.35,2.49a.87.87,0,0,0-.45,1v0a3,3,0,0,1-.2.66h0a.87.87,0,0,0-.1.31s0,0,0,.06a20.63,20.63,0,0,0-.81,3.45c-.41,2-1,3.9-1.5,5.85-1,3.78-1.74,7.61-2.36,11.46s-.87,7.63-1.75,11.35c-.93,3.93-1.48,7.86-2,11.85a1.18,1.18,0,0,0,0,.47,1.71,1.71,0,0,1-.55.15,12.29,12.29,0,0,1-1.49.11c-1.71.11-3.41.55-5.1.8-2.12.3-4.23.22-6.34.41a18.53,18.53,0,0,0-2.79.51,4,4,0,0,1-1.64.14.17.17,0,0,0,0-.05c-.92-1.79-.69-4-.51-6a12,12,0,0,0,2-4.63,11.18,11.18,0,0,1,.68-2.92A16.13,16.13,0,0,1,306,428.9a50.09,50.09,0,0,0,3.15-4.66,25,25,0,0,0,1.78-5.86c.5-2,1.35-3.95,2-5.93s1.33-4.23,2-6.34a59.86,59.86,0,0,0,1.85-6c.34-1.52.27-3.14.59-4.66l0,0c1.66-2.49.1-6.35-1.13-8.69-2.19-4.18-2.2-9.17-3-13.74-.39-2.15-.76-4.62.25-6.65a4.49,4.49,0,0,1,1.87-2c.23-.12,1-.51,1.27-.37s.24.73.28,1a21.18,21.18,0,0,1,.09,6.36c-.19,1.59-.72,4,.56,5.33,1.07,1.07,2.81.75,4,0,1.76-1.14,2-3.2,2.92-4.91a1,1,0,0,0-.57-1.43c.07-2,.28-4,.47-6,.22-2.19.29-4.39.47-6.59a25.58,25.58,0,0,1,1.13-6.14c.21-.65,1.06-3.12,1.91-2.87s.28,2.4.14,3a13.82,13.82,0,0,0-.28,2.94,64.11,64.11,0,0,1-.68,6.48,36.16,36.16,0,0,0-.43,6.57c.07,1.43.31,3,1.61,3.88,3.23,2.13,4.9-3.07,5.32-5.3.75-4.05.9-8.09,2.44-12,.41-1,1.57-4.06,3.25-3.16,1.52.81.52,3.89.09,5.07-1.06,3-2.71,5.67-3.67,8.71-.7,2.23-1.58,4.89-1.08,7.25a2.54,2.54,0,0,0,4.5,1.35c1.74-1.8,2.65-4.68,3.6-6.94,1.4-3.36,2.31-6.81,3.41-10.26.24-.73.94-2.94,2.12-2.36.81.4.53,2,.41,2.73a16.06,16.06,0,0,1-1,3.26,55.18,55.18,0,0,0-1.87,5.71c-.87,3.11-3.1,5.6-4,8.66a2.62,2.62,0,0,0,.56,2.92c1.08.83,2.34.25,3.18-.62a18.83,18.83,0,0,0,2.37-3.6c.92-1.56,1.94-3,2.92-4.54.28-.42.75-1.46,1.26-1.65.33-.13.22-.09.33.3A3.11,3.11,0,0,1,352.31,368.53Z" transform="translate(8.26 4.34)"/></g><g id="eyes"><ellipse class="cls-10" cx="243.15" cy="335.11" rx="6.79" ry="6.26"/><ellipse class="cls-10" cx="271.28" cy="335.24" rx="6.79" ry="6.26"/><ellipse class="cls-11" cx="244.69" cy="334.58" rx="3.26" ry="3.24"/><ellipse class="cls-11" cx="273.55" cy="334.46" rx="3.26" ry="3.24"/></g><g id="mouth"><path class="cls-8" d="M268.71,345a2.3,2.3,0,0,0-1.88.17c-.78.35-1.52.83-2.27,1.24a56.06,56.06,0,0,1-9.75,4.29c-7,2.22-15,2.41-21.37-1.54-1-.78-2.52-1.53-3.6-.39s-.31,2.64.16,3.74a15.8,15.8,0,0,0,2.5,4.39,13.28,13.28,0,0,0,3.71,2.81,42.13,42.13,0,0,0,4.63,2.14,21.93,21.93,0,0,0,5.31,1.52c3.54.48,7.07-.45,10.37-1.65,5.93-2.17,12-6.32,13-13.06C269.71,347.5,270,345.59,268.71,345Z" transform="translate(8.26 4.34)"/><path class="cls-12" d="M238.78,352.49a1.06,1.06,0,0,0-.66-.58l-1.05-.45-2.16-.93a.56.56,0,0,0-.59.09.45.45,0,0,0-.25.42,16,16,0,0,0,.38,3.71,15.1,15.1,0,0,0,.52,1.86c.1.27.2.54.31.81a1.28,1.28,0,0,0,.47.69.68.68,0,0,0,.74,0,1.09,1.09,0,0,0,.36-.72,12.1,12.1,0,0,1,.52-1.68,10.87,10.87,0,0,1,.79-1.56C238.44,353.64,239,353.09,238.78,352.49Z" transform="translate(8.26 4.34)"/><path class="cls-12" d="M263.81,348.29a.5.5,0,0,0-.58.07l-.56.53a27.11,27.11,0,0,1-4,2.16.51.51,0,0,0-.18.69l2.28,3.81a3.5,3.5,0,0,0,1.09,1.4,1.11,1.11,0,0,0,1.49-.27,4.25,4.25,0,0,0,.49-1.76c.13-.69.25-1.39.35-2.09.22-1.44.39-2.89.52-4.35C264.8,347.92,264,347.86,263.81,348.29Z" transform="translate(8.26 4.34)"/><path class="cls-13" d="M269.5,345.63a.35.35,0,0,0-.05-.08.2.2,0,0,0-.06-.07,2.18,2.18,0,0,0-.26-.34,2.06,2.06,0,0,0-1-.53.51.51,0,0,0-.38.05.48.48,0,0,0-.2.22A8.09,8.09,0,0,0,265.4,346l-1.16.65-3.16,1.52a.51.51,0,0,0-.24,0l-1.4.55a.52.52,0,0,0-.21.14c-7.69,3.28-16.82,4.69-24.5.6-1.64-.87-3.89-2.6-5.61-.86a.49.49,0,0,0,.19.81.49.49,0,0,0,.46.63c3.45,0,6.35,2.16,9.54,3.15a14.69,14.69,0,0,0,5.56.48c2-.15,3.95-.42,5.92-.68q3.27-.45,6.52-1a.44.44,0,0,0,.39.07,8.61,8.61,0,0,0,2.7-1.33c.89-.56,1.78-1.12,2.71-1.62a14.58,14.58,0,0,1,6.11-1.92.54.54,0,0,0,.49-.37A1.32,1.32,0,0,0,269.5,345.63Z" transform="translate(8.26 4.34)"/></g></svg>